#!OML:ASF H:\MichaelJackson\Top Level 1\Subject 1\Session 1\male.ASF
:FULLY-SPECIFIED
:DEGREES
1147
root -7.9217 16.9923 4.37195 -171.899 -5.93794 -174.998
lowerback 4.79533 0.756095 4.96515
upperback 2.03064 1.12218 0.401084
thorax -0.504297 0.538446 -2.42779
lowerneck -8.61806 -0.878147 2.89057
upperneck 11.2183 -1.46005 -1.94339
head 4.74313 -0.766727 -1.17219
rclavicle -4.72114e-015 1.41137e-014
rhumerus -45.8996 40.0909 -98.7223
rradius 60.5179
rwrist 6.00112
rhand 23.1169 -27.2011
rfingers 7.12502
rthumb 47.4268 -49.677
lclavicle -4.72114e-015 1.41137e-014
lhumerus -39.5151 -22.9266 90.3946
lradius 83.7789
lwrist -7.18989
lhand -16.058 22.711
lfingers 7.12502
lthumb 10.1442 52.4464
rfemur -20.0085 -3.11194 30.5826
rtibia 34.5376
rfoot -20.9792 -9.58192
rtoes -1.06232
lfemur -52.2733 4.8912 -14.5969
ltibia 69.0239
lfoot 16.6048 -7.81686
ltoes 33.5387
1148
root -7.92254 16.9911 4.45798 -171.701 -5.21661 -174.968
lowerback 4.64217 0.970743 4.90771
upperback 1.90707 1.40775 0.421784
thorax -0.526177 0.681131 -2.38618
lowerneck -8.53977 -0.83007 2.83495
upperneck 11.3473 -1.37329 -2.1017
head 4.77087 -0.738828 -1.20723
rclavicle -2.1916e-014 1.98785e-016
rhumerus -45.6672 41.5169 -98.4305
rradius 61.2446
rwrist 5.55959
rhand 24.969 -27.3366
rfingers 7.12502
rthumb 49.1327 -49.0031
lclavicle -2.1916e-014 1.98785e-016
lhumerus -40.2758 -22.3773 90.808
lradius 82.2317
lwrist -6.69462
lhand -15.5945 22.4464
lfingers 7.12502
lthumb 10.5913 52.1595
rfemur -20.5464 -2.94196 30.4834
rtibia 34.5716
rfoot -20.814 -8.88211
rtoes -1.46314
lfemur -52.7949 5.25418 -14.3677
ltibia 70.561
lfoot 18.1316 -7.29524
ltoes 33.7632
1149
root -7.92794 16.9883 4.53748 -171.576 -4.63557 -174.782
lowerback 4.41511 1.16269 5.0749
upperback 1.87794 1.65827 0.493245
thorax -0.406915 0.809115 -2.41225
lowerneck -8.63129 -0.784611 2.72582
upperneck 11.5421 -1.29632 -2.16877
head 4.84844 -0.71216 -1.20773
rclavicle -3.09607e-014 1.15295e-014
rhumerus -45.2307 42.8897 -97.9574
rradius 61.9414
rwrist 5.02262
rhand 26.4132 -27.5717
rfingers 7.12502
rthumb 50.4554 -48.552
lclavicle -3.09607e-014 1.15295e-014
lhumerus -40.8756 -21.821 91.208
lradius 80.6056
lwrist -6.86253
lhand -15.1994 22.6588
lfingers 7.12502
lthumb 10.9724 52.3521
rfemur -20.9854 -3.07994 30.556
rtibia 34.6069
rfoot -20.7525 -8.03813
rtoes -2.45802
lfemur -53.1833 5.53412 -13.9618
ltibia 72.0913
lfoot 19.4305 -6.97208
ltoes 33.6186
1150
root -7.93368 16.9914 4.61583 -171.672 -4.395 -174.621
lowerback 4.45764 1.23785 5.25269
upperback 1.88783 1.76283 0.599767
thorax -0.409444 0.859287 -2.4072
lowerneck -8.59169 -0.776256 2.89082
upperneck 11.5772 -1.26528 -2.52311
head 4.84947 -0.713687 -1.34262
rclavicle 1.36167e-014 6.16232e-015
rhumerus -44.6242 44.2618 -97.2995
rradius 62.5083
rwrist 4.55559
rhand 27.8936 -27.545
rfingers 7.12502
rthumb 51.8036 -47.7666
lclavicle 1.36167e-014 6.16232e-015
lhumerus -41.4027 -21.2482 91.638
lradius 78.9694
lwrist -7.28262
lhand -14.5954 23.6782
lfingers 7.12502
lthumb 11.555 53.3397
rfemur -21.2062 -3.43319 30.6275
rtibia 34.6308
rfoot -20.7333 -7.271
rtoes -3.28782
lfemur -53.32 5.52361 -13.535
ltibia 73.5679
lfoot 20.7507 -6.70923
ltoes 33.5316
1151
root -7.93782 16.9966 4.695 -171.778 -4.0542 -174.563
lowerback 4.51112 1.31471 5.24988
upperback 1.8982 1.86448 0.682669
thorax -0.423229 0.907635 -2.32577
lowerneck -8.63908 -0.696392 2.85079
upperneck 11.7962 -1.14852 -2.6166
head 4.92788 -0.667685 -1.36003
rclavicle -1.48592e-014 1.98785e-016
rhumerus -43.9748 45.7537 -96.649
rradius 63.0423
rwrist 3.80568
rhand 29.6475 -27.8039
rfingers 7.12502
rthumb 53.3897 -47.0463
lclavicle -1.48592e-014 1.98785e-016
lhumerus -42.0405 -20.5194 91.955
lradius 77.4331
lwrist -7.82825
lhand -13.6646 24.6658
lfingers 7.12502
lthumb 12.4525 54.2748
rfemur -21.4024 -3.67087 30.5812
rtibia 34.6121
rfoot -20.611 -6.40933
rtoes -3.30815
lfemur -53.3557 5.61089 -13.2664
ltibia 74.9717
lfoot 22.0421 -6.68488
ltoes 32.9221
1152
root -7.94077 17.0007 4.77398 -171.895 -3.82771 -174.582
lowerback 4.59686 1.3742 5.2037
upperback 1.92675 1.94251 0.733603
thorax -0.438851 0.944468 -2.25277
lowerneck -8.8081 -0.654162 2.79449
upperneck 12.075 -1.08773 -2.66214
head 5.04434 -0.647153 -1.36491
rclavicle 1.21756e-014 1.66979e-014
rhumerus -43.1342 47.1284 -95.8151
rradius 63.4892
rwrist 2.95514
rhand 31.5859 -28.1155
rfingers 7.12502
rthumb 55.1268 -46.162
lclavicle 1.21756e-014 1.66979e-014
lhumerus -42.6034 -19.8739 92.2378
lradius 75.837
lwrist -8.25782
lhand -13.2444 24.4052
lfingers 7.12502
lthumb 12.8576 53.9892
rfemur -21.5892 -3.85912 30.4794
rtibia 34.5592
rfoot -20.2617 -5.77724
rtoes -3.52459
lfemur -53.2991 5.55965 -13.0396
ltibia 76.3019
lfoot 23.5244 -6.35792
ltoes 33.5076
1153
root -7.94595 17.0083 4.84606 -171.97 -3.58382 -174.469
lowerback 4.55727 1.41929 5.30868
upperback 1.9551 1.99946 0.792446
thorax -0.38113 0.973223 -2.25154
lowerneck -8.94631 -0.575058 2.99124
upperneck 12.2718 -0.987565 -2.87627
head 5.12914 -0.606249 -1.45999
rclavicle -6.21202e-016 9.64106e-015
rhumerus -42.2228 48.5445 -94.953
rradius 63.957
rwrist 2.11805
rhand 33.6303 -28.6538
rfingers 7.12502
rthumb 56.9378 -45.2915
lclavicle -6.21202e-016 9.64106e-015
lhumerus -43.2395 -19.2128 92.4287
lradius 74.4303
lwrist -8.31233
lhand -12.4056 24.559
lfingers 7.12502
lthumb 13.6661 54.0903
rfemur -21.7617 -4.08339 30.5382
rtibia 34.4861
rfoot -20.0254 -5.15545
rtoes -3.76267
lfemur -53.2252 5.57975 -12.7041
ltibia 77.5684
lfoot 25.1652 -6.02643
ltoes 34.2927
1154
root -7.94662 17.0164 4.92411 -172.096 -3.31913 -174.47
lowerback 4.73552 1.46606 5.25422
upperback 1.91161 2.07252 0.811018
thorax -0.522626 1.0049 -2.21129
lowerneck -8.98305 -0.515989 3.04373
upperneck 12.559 -0.921155 -2.91283
head 5.22609 -0.578873 -1.47876
rclavicle -3.19795e-014 -1.39149e-015
rhumerus -41.4099 49.8242 -94.1337
rradius 64.4486
rwrist 1.4121
rhand 35.4123 -29.1067
rfingers 7.12502
rthumb 58.4958 -44.3747
lclavicle -3.19795e-014 -1.39149e-015
lhumerus -44.0255 -18.6102 92.6226
lradius 73.1855
lwrist -7.78194
lhand -11.5903 24.8729
lfingers 7.12502
lthumb 14.4518 54.3496
rfemur -21.8826 -3.98484 30.4945
rtibia 34.3922
rfoot -19.7246 -4.84811
rtoes -3.6129
lfemur -53.0372 5.61326 -12.4754
ltibia 78.7185
lfoot 26.8803 -5.88769
ltoes 34.4808
1155
root -7.94784 17.026 4.99635 -172.167 -3.14554 -174.538
lowerback 4.72317 1.46485 5.15661
upperback 1.88913 2.06894 0.802733
thorax -0.542779 1.00284 -2.16525
lowerneck -9.0576 -0.446975 3.08156
upperneck 12.8297 -0.847363 -2.88477
head 5.32524 -0.543619 -1.47441
rclavicle -8.10048e-015 9.83984e-015
rhumerus -40.5304 51.2499 -93.3201
rradius 64.8903
rwrist 0.729512
rhand 37.1991 -29.4848
rfingers 7.12502
rthumb 60.0356 -43.2277
lclavicle -8.10048e-015 9.83984e-015
lhumerus -44.8067 -18.0135 92.7605
lradius 72.0576
lwrist -6.67027
lhand -10.8327 25.3248
lfingers 7.12502
lthumb 15.1817 54.7479
rfemur -22.0368 -3.93949 30.3961
rtibia 34.2861
rfoot -19.3991 -4.62604
rtoes -3.46486
lfemur -52.818 5.57021 -12.3443
ltibia 79.7661
lfoot 28.6116 -5.83652
ltoes 34.6981
1156
root -7.94956 17.0352 5.06603 -172.195 -3.02217 -174.599
lowerback 4.62095 1.4748 5.11941
upperback 1.90946 2.07432 0.777303
thorax -0.464882 1.00825 -2.16742
lowerneck -9.12114 -0.404539 3.269
upperneck 12.9719 -0.80688 -3.00078
head 5.38019 -0.525178 -1.54057
rclavicle 9.19379e-016 -3.77691e-015
rhumerus -39.4264 52.5004 -92.2604
rradius 65.4024
rwrist 0.0214901
rhand 39.1242 -30.1582
rfingers 7.12502
rthumb 61.6653 -42.0627
lclavicle 9.19379e-016 -3.77691e-015
lhumerus -45.5096 -17.5786 92.8937
lradius 71.0906
lwrist -5.09963
lhand -10.0554 26.0602
lfingers 7.12502
lthumb 15.9303 55.4251
rfemur -22.2313 -3.817 30.3091
rtibia 34.1958
rfoot -19.0824 -4.52682
rtoes -3.18914
lfemur -52.5518 5.50075 -12.2114
ltibia 80.6893
lfoot 30.3797 -5.7971
ltoes 35.3525
1157
root -7.94973 17.043 5.13973 -172.279 -2.86507 -174.733
lowerback 4.67473 1.49932 5.01328
upperback 1.91911 2.10651 0.717067
thorax -0.484472 1.02451 -2.17303
lowerneck -9.20636 -0.344297 3.3343
upperneck 13.1287 -0.745379 -2.96729
head 5.44561 -0.491781 -1.53859
rclavicle 8.29926e-015 -1.76918e-014
rhumerus -38.2248 53.6852 -91.0846
rradius 65.909
rwrist -0.403944
rhand 39.8408 -30.3515
rfingers 7.12502
rthumb 62.2631 -41.5139
lclavicle 8.29926e-015 -1.76918e-014
lhumerus -46.1842 -17.2813 93.0317
lradius 70.1815
lwrist -3.06758
lhand -9.53747 26.8937
lfingers 7.12502
lthumb 16.429 56.218
rfemur -22.3965 -3.50178 30.1422
rtibia 34.144
rfoot -18.6735 -4.61377
rtoes -2.86674
lfemur -52.1509 5.45839 -12.1545
ltibia 81.4938
lfoot 32.2261 -5.98105
ltoes 36.2989
